<?xml version="1.0" encoding="UTF-8" standalone="no"?>
<svg xmlns="http://www.w3.org/2000/svg" width="32" height="32" viewBox="0 0 32 32">
  <rect width="32" height="32" rx="6" fill="#FF0000" />
  <path d="M24,12 L24,10 C24,8.9 23.1,8 22,8 L10,8 C8.9,8 8,8.9 8,10 L8,12 L6,12 C4.9,12 4,12.9 4,14 L4,18 C4,19.1 4.9,20 6,20 L8,20 L8,22 C8,23.1 8.9,24 10,24 L22,24 C23.1,24 24,23.1 24,22 L24,20 L26,20 C27.1,20 28,19.1 28,18 L28,14 C28,12.9 27.1,12 26,12 L24,12 Z" fill="#FFFFFF" />
  <circle cx="22" cy="16" r="2" fill="#FF0000" />
  <circle cx="18" cy="16" r="2" fill="#FF0000" />
  <rect x="8" y="14" width="2" height="4" fill="#FF0000" />
  <rect x="6" y="16" width="6" height="2" fill="#FF0000" />
</svg>
